# xmcd
#
# Track frame offsets:
#	150
#	19739
#	41485
#	55713
#	74877
#	98624
#	114577
#	135911
#	157551
#
# Disc length: 2325 seconds
#
# Revision: 0
# Processed by: cddbd v1.5.2PL0 Copyright (c) Steve Scherf et al.
# Submitted via: EasyCDDAExtractor 16.1.0.1
#
DISCID=68091309
DTITLE=许嵩 - 寻雾启示
DYEAR=09
DGENRE=华语流行
TTITLE0=叹服
TTITLE1=灰色头像
TTITLE2=我无所谓
TTITLE3=庐州月
TTITLE4=不煽情
TTITLE5=我们的恋爱是对生命的严重浪费
TTITLE6=白马非马
TTITLE7=单人旅途
TTITLE8=在那不遥远的地方
EXTD=
EXTT0=
EXTT1=
EXTT2=
EXTT3=
EXTT4=
EXTT5=
EXTT6=
EXTT7=
EXTT8=
PLAYORDER=
